# xmcd CD database file
#
# Track frame offsets:
#	150
#	14197
#	27755
#	45607
#	59730
#	72550
#	85710
#	102287
#	113372
#	128177
#	144725
#
# Disc length: 2192 seconds
#
# Revision: 13
# Processed by: cddbd v1.5.2PL0 Copyright (c) Steve Scherf et al.
# Submitted via: CDex 1.60beta1
#
DISCID=9b088e0b
DTITLE=Randy Travis - Greatest Hits Volume One
DYEAR=1992
DGENRE=Country
TTITLE0=If I Didn't Have You
TTITLE1=1982
TTITLE2=Hard Rock Bottom Of Your Heart
TTITLE3=On The Other Hand
TTITLE4=Honky Tonk Moon
TTITLE5=An Old Pair Of Shoes
TTITLE6=I Told You So
TTITLE7=Too Gone Too Long
TTITLE8=Heroes And Friends
TTITLE9=Deeper Than The Holler
TTITLE10=Reasons I Cheat
EXTD=YEAR: 1992
EXTT0=
EXTT1=
EXTT2=
EXTT3=
EXTT4=
EXTT5=
EXTT6=
EXTT7=
EXTT8=
EXTT9=
EXTT10=
PLAYORDER=
